<svg xmlns="http://www.w3.org/2000/svg" xmlns:xlink="http://www.w3.org/1999/xlink" width="1080" height="1080" viewBox="0 0 1080 1080"><defs><style>.a{fill:none;}.b{clip-path:url(#a);}.c{clip-path:url(#b);}.d{fill:#fff;}</style><clipPath id="a"><rect class="a" width="1080" height="1080"/></clipPath><clipPath id="b"><rect class="a" width="720" height="115.206"/></clipPath></defs><g class="b"><rect width="1080" height="1080"/><g class="c" transform="translate(180 482)"><path class="d" d="M41.473-16.745v-13.7H.36v13.7H13.612V84.606H28.22V-16.745Zm50,101.351V-30.449H76.712V17.29H61.954V-30.449H47.346V84.606H61.954V31.6H76.712v53.01Zm44.125,0V70.9h-20.33V32.048h17.77V18.494h-17.77V-16.745h19.879v-13.7H100.657V84.606ZM209.99,68.492V-14.336q0-7.68-4.066-11.9t-12.2-4.217H166.317V84.606h27.409q7.982,0,12.123-4.141T209.99,68.492ZM195.231,65.33q0,6.024-6.476,6.024h-7.831V-17.2h8.132q6.174,0,6.174,6.024Zm38.4,19.276V-30.449H219.026V84.606Zm54.516,0v-.3L271.584-30.6H257.277L240.561,84.3v.3h14.307l2.259-22.138h14.307l2.259,22.138ZM269.927,48.915H258.632L263,8.4l1.2-12.8,1.2,12.8Zm80.117,35.691V-30.449H335.587L324.443,16.537a71.727,71.727,0,0,0-1.506,8.057q-.452,3.69-.6,8.057-.151-4.367-.6-8.057a71.727,71.727,0,0,0-1.506-8.057L309.233-30.449H294.926V84.606h14.307V37.771q0-1.958-.226-4.894t-.527-5.723q-.3-2.786-.527-4.744l-.226-1.958L318.268,72.86h8.283l10.542-52.407-.226,1.958q-.226,1.958-.527,4.744t-.527,5.723q-.226,2.937-.226,4.894V84.606Zm53.16-9.789V-20.661q0-9.789-9.638-9.789h-25q-9.488,0-9.488,9.789V74.817q0,9.789,9.488,9.789h25Q403.2,84.606,403.2,74.817Zm-14.758-3.464H373.688V-17.2h14.758Zm69.575,13.252V-30.449H443.715V25.271a34.484,34.484,0,0,0,.376,4.292q.377,2.786.678,4.744t.3,2.259L426.1-30.449H412.542V84.606h14.307V27.982a34.489,34.489,0,0,0-.376-4.292q-.377-2.786-.753-4.744a22.872,22.872,0,0,1-.376-2.259l19.126,67.919Zm53.01-16.114V-14.336q0-7.68-4.066-11.9t-12.2-4.217H467.359V84.606h27.408q7.982,0,12.123-4.141T511.031,68.492ZM496.273,65.33q0,6.024-6.476,6.024h-7.831V-17.2H490.1q6.174,0,6.174,6.024Zm66.714,9.488V39.277a14.027,14.027,0,0,0-1.2-6.476,15.374,15.374,0,0,0-4.367-4.668l-5.422-3.765,5.12-3.614a13.9,13.9,0,0,0,4.292-4.367,14.248,14.248,0,0,0,1.13-6.476V-20.661q0-9.789-9.638-9.789h-32.98V84.606H553.2Q562.987,84.606,562.987,74.817Zm-15.06-61.744L541.9,17.892h-7.379V-17.348h13.4Zm.3,58.431h-13.7V31.144h7.53l6.174,4.668Zm68.371,13.1v-.3L600.034-30.6H585.727L569.011,84.3v.3h14.307l2.259-22.138h14.307l2.259,22.138ZM598.377,48.915H587.082L591.45,8.4l1.2-12.8,1.2,12.8Zm67.768,25.9V46.053H651.387v25.3H637.532V-17.2h13.855V6.6h14.758V-20.661q0-9.789-9.789-9.789H632.412q-9.488,0-9.488,9.789V74.817q0,9.789,9.488,9.789h23.945Q666.145,84.606,666.145,74.817Zm54.215,9.789V84L702.439,25.121l16.114-54.968v-.6H703.041l-13.252,50.6v-50.6H675.181V84.606h14.608V30.994l14.758,53.612Z" transform="translate(-0.36 30.6)"/></g></g></svg>