<svg xmlns="http://www.w3.org/2000/svg" xmlns:xlink="http://www.w3.org/1999/xlink" width="1080" height="829" viewBox="0 0 1080 829"><defs><style>.a{fill:none;}.b{clip-path:url(#c);}.c{clip-path:url(#a);}</style><clipPath id="a"><rect class="a" width="1080" height="828.434"/></clipPath><clipPath id="c"><rect width="1080" height="829"/></clipPath></defs><g id="b" class="b"><g transform="translate(0 0)"><g class="c" transform="translate(0 0)"><path d="M315.7,681.85V85.464q0-55.3-29.277-85.663T198.589-30.56H1.24V797.874H198.589q57.47,0,87.289-29.819T315.7,681.85ZM209.433,659.078q0,43.374-46.626,43.374H106.421V64.862h58.554q44.458,0,44.458,43.374Zm480.361,68.313v-255.9q0-30.361-8.675-46.627t-31.446-33.614l-39.036-27.108,36.867-26.024q22.771-16.265,30.9-31.446t8.133-46.626V39.922q0-70.482-69.4-70.482H379.674V797.874H619.312Q689.794,797.874,689.794,727.392ZM581.36,282.813l-43.373,34.7H484.854V63.777H581.36Zm2.169,420.723H484.854v-290.6h54.217l44.458,33.614Zm497.711,94.337v-4.337L952.2,369.56,1068.228-26.223V-30.56H956.541L861.119,333.777V-30.56H755.939V797.874H861.119V411.85L967.385,797.874Z" transform="translate(-1.24 30.56)"/></g></g></g></svg>