<svg xmlns="http://www.w3.org/2000/svg" xmlns:xlink="http://www.w3.org/1999/xlink" width="1080" height="1080" viewBox="0 0 1080 1080"><defs><style>.a{fill:none;}.b{clip-path:url(#a);}.c{fill:#e51d37;}.d{clip-path:url(#b);}.e{fill:#fff;}</style><clipPath id="a"><rect class="a" width="1080" height="1080"/></clipPath><clipPath id="b"><rect class="a" width="600" height="460.241"/></clipPath></defs><g class="b"><rect class="c" width="1080" height="1080"/><g class="d" transform="translate(240 310)"><path class="e" d="M175.939,365.223V33.9q0-30.723-16.265-47.59t-48.8-16.867H1.24V429.681H110.879q31.928,0,48.494-16.566T175.939,365.223ZM116.9,352.573q0,24.1-25.9,24.1H59.674V22.452H92.2q24.7,0,24.7,24.1ZM383.77,390.524V248.356q0-16.867-4.819-25.9t-17.47-18.675l-21.687-15.06,20.482-14.458q12.651-9.036,17.169-17.47t4.518-25.9V8.6q0-39.157-38.554-39.157H211.481V429.681H344.613Q383.77,429.681,383.77,390.524ZM323.529,143.536l-24.1,19.277H269.915V21.85h53.614Zm1.2,233.735H269.915V215.826h30.121l24.7,18.675Zm276.506,52.41v-2.41L529.553,191.729,594.011-28.15v-2.41H531.963L478.951,171.85V-30.56H420.517V429.681h58.434V215.223l59.036,214.458Z" transform="translate(-1.24 30.56)"/></g></g></svg>