<svg xmlns="http://www.w3.org/2000/svg" xmlns:xlink="http://www.w3.org/1999/xlink" width="1920" height="1080" viewBox="0 0 1920 1080"><defs><style>.a{fill:none;}.b{clip-path:url(#d);}.c{clip-path:url(#a);}.d{fill:#e51d37;}.e{clip-path:url(#b);}.f{fill:#fff;}</style><clipPath id="a"><rect class="a" width="1920" height="1080"/></clipPath><clipPath id="b"><rect class="a" width="1080" height="172.809"/></clipPath><clipPath id="d"><rect width="1920" height="1080"/></clipPath></defs><g id="c" class="b"><rect class="d" width="1920" height="1080"/><g class="c"><rect class="d" width="1920" height="1080"/><g class="e" transform="translate(420 454)"><path class="f" d="M62.029-9.818V-30.374H.36V-9.818H20.239V142.209H42.15V-9.818Zm75,152.027V-30.374H114.888V41.234H92.751V-30.374H70.839V142.209H92.751V62.694h22.138v79.515Zm66.187,0V121.653h-30.5V63.372h26.655V43.041H172.717V-9.818h29.818V-30.374h-51.73V142.209ZM314.8,118.038V-6.2q0-11.521-6.1-17.846t-18.3-6.325H249.3V142.209h41.113q11.972,0,18.184-6.212T314.8,118.038Zm-22.138-4.744q0,9.036-9.713,9.036H271.207V-10.5h12.2q9.262,0,9.262,9.036Zm57.6,28.914V-30.374H328.358V142.209Zm81.774,0v-.452L407.2-30.6h-21.46L360.661,141.757v.452h21.46L385.51,109h21.46l3.388,33.206ZM404.711,88.672H387.768l6.551-60.766,1.807-19.2,1.807,19.2Zm120.176,53.537V-30.374H503.2L486.484,40.1a107.6,107.6,0,0,0-2.259,12.085q-.678,5.534-.9,12.085-.226-6.551-.9-12.085A107.6,107.6,0,0,0,480.159,40.1l-16.49-70.479h-21.46V142.209h21.46V71.956q0-2.937-.339-7.342t-.791-8.584q-.452-4.179-.791-7.116l-.339-2.937,15.813,78.611h12.424l15.813-78.611-.339,2.937q-.339,2.937-.791,7.116t-.791,8.584q-.339,4.4-.339,7.342v70.253Zm79.741-14.683V-15.691q0-14.683-14.457-14.683h-37.5q-14.231,0-14.231,14.683V127.526q0,14.683,14.231,14.683h37.5Q604.627,142.209,604.627,127.526Zm-22.138-5.2H560.352V-10.5h22.138Zm104.363,19.879V-30.374h-21.46V53.207a51.724,51.724,0,0,0,.565,6.438q.565,4.179,1.017,7.116t.452,3.388L638.963-30.374H618.632V142.209h21.46V57.273a51.733,51.733,0,0,0-.565-6.438q-.565-4.179-1.13-7.116a34.31,34.31,0,0,1-.565-3.388l28.689,101.878Zm79.515-24.171V-6.2q0-11.521-6.1-17.846t-18.3-6.325H700.858V142.209h41.113q11.972,0,18.185-6.212T766.367,118.038Zm-22.138-4.744q0,9.036-9.713,9.036H722.77V-10.5h12.2q9.262,0,9.262,9.036ZM844.3,127.526V74.215q0-6.325-1.807-9.713a23.06,23.06,0,0,0-6.551-7l-8.132-5.647,7.68-5.421q4.744-3.388,6.438-6.551t1.694-9.713V-15.691q0-14.683-14.457-14.683H779.695V142.209h49.923Q844.3,142.209,844.3,127.526ZM821.711,34.909l-9.036,7.229H801.607V-10.721h20.1Zm.452,87.647H801.607V62.017H812.9l9.262,7Zm102.556,19.653v-.452L899.871-30.6h-21.46L853.336,141.757v.452H874.8L878.185,109h21.46l3.388,33.206ZM897.386,88.672H880.444l6.551-60.766,1.807-19.2,1.807,19.2Zm101.652,38.854V84.38H976.9v37.95H956.118V-10.5H976.9V25.2h22.138V-15.691q0-14.683-14.683-14.683H948.438q-14.231,0-14.231,14.683V127.526q0,14.683,14.231,14.683h35.917Q999.038,142.209,999.038,127.526Zm81.322,14.683v-.9l-26.881-88.325,24.171-82.451v-.9h-23.267l-19.879,75.9v-75.9h-21.912V142.209H1034.5V61.791l22.138,80.418Z" transform="translate(-0.36 30.6)"/></g></g></g></svg>